<?xml version="1.0" encoding="UTF-8"?>
<svg id="Layer_1" xmlns="http://www.w3.org/2000/svg" version="1.1" viewBox="0 0 142 105">
  <!-- Generator: Adobe Illustrator 29.2.1, SVG Export Plug-In . SVG Version: 2.1.0 Build 116)  -->
  <defs>
    <style>
      .st0 {
        fill: #567741;
      }
    </style>
  </defs>
  <path class="st0" d="M52.53,30.04l9.23-23.6c1-2.61,2.01-4.26,3.01-4.97,1-.71,2.88-1.06,5.62-1.06h23.57c4.2,0,6.3,1.51,6.3,4.54,0,2-.69,3.66-2.08,4.99-1.39,1.34-3.1,2-5.14,2h-20.69l-6.94,18.1h6.9c3.41,0,5.12,1.56,5.12,4.68,0,1.9-.7,3.52-2.1,4.85-1.4,1.34-3.11,2-5.12,2h-9.23l-10.14,26.35h86.04c3.41,0,5.12,1.51,5.12,4.54,0,1.99-.69,3.66-2.08,4.99-1.39,1.33-3.1,2-5.14,2H46.41l-.59,1.35c-2.13,5.02-3.8,8.54-5,10.57-1.2,2.03-2.78,3.99-4.73,5.89-5.09,4.92-10.93,7.38-17.54,7.38-5.39,0-9.83-1.69-13.32-5.07-3.49-3.38-5.23-7.67-5.23-12.88,0-3.25.75-6.29,2.24-9.12,1.49-2.83,3.52-5.04,6.08-6.61,3.32-2.03,7.81-3.04,13.48-3.04h16.17l10.14-26.35h-1.51c-3.41,0-5.12-1.58-5.12-4.73,0-1.9.7-3.51,2.1-4.83,1.4-1.32,3.11-1.98,5.12-1.98h3.84ZM33.53,79.46h-12.06c-5.97,0-8.95,2.24-8.95,6.71,0,1.83.66,3.37,1.99,4.61,1.32,1.24,2.96,1.86,4.91,1.86,2.74,0,5.37-1.17,7.88-3.52,2.51-2.35,4.59-5.57,6.24-9.65Z"/>
  <path class="st0" d="M130.62,53.34h5.44c3.84,0,5.76,1.43,5.76,4.29,0,1.96-.68,3.49-2.03,4.58-1.36,1.09-3.24,1.64-5.64,1.64h-9.27c-2.01,0-3.64-.56-4.89-1.69-1.25-1.13-1.87-2.61-1.87-4.44,0-1.25.41-2.96,1.23-5.11l4.29-11.05c.24-.64.37-1.24.37-1.79,0-2.09-1-3.14-3.01-3.14-1.55,0-3.09.74-4.61,2.22-1.52,1.48-2.74,3.44-3.65,5.89l-5.12,13.32c-1.68,4.31-4.11,6.47-7.31,6.47-1.25,0-2.31-.43-3.2-1.3-.88-.87-1.32-1.9-1.32-3.09,0-.93.23-2.03.69-3.28l.5-1.3,5.16-13.46c.46-1.19.69-2.12.69-2.8s-.3-1.33-.91-1.86c-.61-.53-1.32-.8-2.15-.8-3.29,0-5.89,2.51-7.81,7.53l-5.34,13.85c-1.68,4.34-4.1,6.51-7.26,6.51-1.25,0-2.32-.43-3.22-1.28-.9-.85-1.35-1.89-1.35-3.11,0-.97.23-2.06.69-3.28l.5-1.3,9.09-23.65c1.28-3.31,3.2-4.97,5.76-4.97s4.29,1.32,4.93,3.96c2.07-1.87,3.75-3.1,5.05-3.72,1.29-.61,2.88-.92,4.77-.92,4.08,0,7.14,1.88,9.18,5.65,3.41-3.76,7.25-5.65,11.51-5.65,2.92,0,5.37.89,7.33,2.68s2.95,3.98,2.95,6.59c0,1.64-.34,3.33-1,5.07l-4.89,12.74Z"/>
</svg>